{"title":"The Gambler (2014) DVDScr X265 HEVC -PYRORECORDINGS","uid":11675455,"size":368848954,"categoryP":"video","categoryS":"movies","magnet":"?xt=urn:btih:8662a3c02c06dac3bc513db5a80d417b8a8732b7&amp;dn=The+Gambler+%282014%29+DVDScr+X265+HEVC+-PYRORECORDINGS&amp;tr=udp%3A%2F%2Ftracker.openbittorrent.com%3A80&amp;tr=udp%3A%2F%2Fopen.demonii.com%3A1337&amp;tr=udp%3A%2F%2Ftracker.coppersurfer.tk%3A6969&amp;tr=udp%3A%2F%2Fexodus.desync.com%3A6969","seeders":3,"leechers":0,"uploader":"Pyro4vida","files":1,"time":1422837272,"description":"CODED AND ORIGINALLY UPLOADED BY MOVIETEAM2000\n\n(2014) DVDScr X265 HEVC - (Movieteam2000) - 351MB.mp4\nFormat                                   : iso4\nCodec ID                                 : iso4\nFile size                                : 352 MiB\nDuration                                 : 1h 50mn\nOverall bit rate mode                    : Variable\nOverall bit rate                         : 443 Kbps\nEncoded date                             : UTC 2015-01-09 01:23:53\nTagged date                              : UTC 2015-01-09 01:23:53\n\nVideo\nID                                       : 1\nFormat                                   : hvc1\nCodec ID                                 : hvc1\nDuration                                 : 1h 50mn\nBit rate                                 : 333 Kbps\nMaximum bit rate                         : 2 920 Kbps\nWidth                                    : 704 pixels\nHeight                                   : 320 pixels\nDisplay aspect ratio                     : 2.2:1\nFrame rate mode                          : Constant\nFrame rate                               : 23.976 fps\nBits/(Pixel*Frame)                       : 0.062\nStream size                              : 264 MiB (75%)\nEncoded date                             : UTC 2015-01-09 01:23:53\nTagged date                              : UTC 2015-01-09 01:23:59\n\nAudio\nID                                       : 2\nFormat                                   : MPEG Audio\nFormat version                           : Version 1\nFormat profile                           : Layer 3\nMode                                     : Joint stereo\nMode extension                           : MS Stereo\nCodec ID                                 : 6B\nDuration                                 : 1h 50mn\nBit rate mode                            : Variable\nBit rate                                 : 106 Kbps\nMinimum bit rate                         : 32.0 Kbps\nMaximum bit rate                         : 160 Kbps\nChannel(s)                               : 2 channels\nSampling rate                            : 48.0 KHz\nCompression mode                         : Lossy\nStream size                              : 84.3 MiB (24%)","torrent":{"xt":"urn:btih:8662a3c02c06dac3bc513db5a80d417b8a8732b7","amp;dn":"The+Gambler+%282014%29+DVDScr+X265+HEVC+-PYRORECORDINGS","amp;tr":["udp%3A%2F%2Ftracker.openbittorrent.com%3A80","udp%3A%2F%2Fopen.demonii.com%3A1337","udp%3A%2F%2Ftracker.coppersurfer.tk%3A6969","udp%3A%2F%2Fexodus.desync.com%3A6969"],"infoHash":"8662a3c02c06dac3bc513db5a80d417b8a8732b7","infoHashBuffer":{"type":"Buffer","data":[134,98,163,192,44,6,218,195,188,81,61,181,168,13,65,123,138,135,50,183]},"announce":[],"urlList":[]}}